G04 MADE WITH FRITZING*
G04 WWW.FRITZING.ORG*
G04 DOUBLE SIDED*
G04 HOLES PLATED*
G04 CONTOUR ON CENTER OF CONTOUR VECTOR*
%ASAXBY*%
%FSLAX23Y23*%
%MOIN*%
%OFA0B0*%
%SFA1.0B1.0*%
%ADD10C,0.092000*%
%ADD11C,0.078000*%
%ADD12C,0.082000*%
%ADD13R,0.092000X0.092000*%
%ADD14R,0.082000X0.082000*%
%ADD15C,0.024000*%
%LNCOPPER0*%
G90*
G70*
G54D10*
X457Y555D03*
X457Y855D03*
X457Y1355D03*
X457Y1655D03*
X457Y2055D03*
X457Y2355D03*
X457Y2655D03*
X457Y2955D03*
X457Y3255D03*
X457Y3555D03*
X1157Y555D03*
X1157Y855D03*
X1157Y1355D03*
X1157Y1655D03*
X1157Y2055D03*
X1157Y2355D03*
X1157Y2655D03*
X1157Y2955D03*
X1157Y3255D03*
X1157Y3555D03*
X1757Y555D03*
X1757Y855D03*
X1757Y1355D03*
X1757Y1655D03*
X1757Y2055D03*
X1757Y2355D03*
X1757Y2655D03*
X1757Y2955D03*
X1757Y3255D03*
X1757Y3555D03*
X2457Y555D03*
X2457Y855D03*
X2457Y1355D03*
X2457Y1655D03*
X2457Y2055D03*
X2457Y2355D03*
X2457Y2655D03*
X2457Y2955D03*
X2457Y3255D03*
X2457Y3555D03*
X3157Y555D03*
X3157Y855D03*
X3157Y1355D03*
X3157Y1655D03*
X3157Y2055D03*
X3157Y2355D03*
X3157Y2655D03*
X3157Y2955D03*
X3157Y3255D03*
X3157Y3555D03*
G54D11*
X3457Y2455D03*
X3457Y2655D03*
X3457Y2855D03*
X3457Y3055D03*
X3457Y3255D03*
X3457Y155D03*
X3457Y355D03*
X3457Y555D03*
X3457Y755D03*
X3457Y955D03*
G54D12*
X2857Y853D03*
X2857Y555D03*
X2857Y1653D03*
X2857Y1355D03*
X2857Y2353D03*
X2857Y2055D03*
X2857Y2953D03*
X2857Y2655D03*
X2857Y3553D03*
X2857Y3255D03*
X2157Y853D03*
X2157Y555D03*
X2157Y1653D03*
X2157Y1355D03*
X2157Y2353D03*
X2157Y2055D03*
X2157Y2953D03*
X2157Y2655D03*
X2157Y3553D03*
X2157Y3255D03*
X1457Y853D03*
X1457Y555D03*
X1457Y1653D03*
X1457Y1355D03*
X1457Y2353D03*
X1457Y2055D03*
X1457Y2953D03*
X1457Y2655D03*
X1457Y3553D03*
X1457Y3255D03*
X857Y853D03*
X857Y555D03*
X857Y1653D03*
X857Y1355D03*
X857Y2353D03*
X857Y2055D03*
X857Y2953D03*
X857Y2655D03*
X857Y3553D03*
X857Y3255D03*
X157Y853D03*
X157Y555D03*
X157Y1653D03*
X157Y1355D03*
X157Y2353D03*
X157Y2055D03*
X157Y2953D03*
X157Y2655D03*
X157Y3553D03*
X157Y3255D03*
G54D13*
X457Y555D03*
X457Y1355D03*
X457Y2055D03*
X457Y2655D03*
X457Y3255D03*
X1157Y555D03*
X1157Y1355D03*
X1157Y2055D03*
X1157Y2655D03*
X1157Y3255D03*
X1757Y555D03*
X1757Y1355D03*
X1757Y2055D03*
X1757Y2655D03*
X1757Y3255D03*
X2457Y555D03*
X2457Y1355D03*
X2457Y2055D03*
X2457Y2655D03*
X2457Y3255D03*
X3157Y555D03*
X3157Y1355D03*
X3157Y2055D03*
X3157Y2655D03*
X3157Y3255D03*
G54D14*
X2857Y854D03*
X2857Y1654D03*
X2857Y2354D03*
X2857Y2954D03*
X2857Y3554D03*
X2157Y854D03*
X2157Y1654D03*
X2157Y2354D03*
X2157Y2954D03*
X2157Y3554D03*
X1457Y854D03*
X1457Y1654D03*
X1457Y2354D03*
X1457Y2954D03*
X1457Y3554D03*
X857Y854D03*
X857Y1654D03*
X857Y2354D03*
X857Y2954D03*
X857Y3554D03*
X157Y854D03*
X157Y1654D03*
X157Y2354D03*
X157Y2954D03*
X157Y3554D03*
G54D15*
X2178Y3553D02*
X2431Y3555D01*
D02*
X1131Y855D02*
X878Y853D01*
D02*
X1731Y855D02*
X1478Y853D01*
D02*
X2431Y855D02*
X2178Y853D01*
D02*
X2878Y2353D02*
X3131Y2355D01*
D02*
X2178Y2353D02*
X2431Y2355D01*
D02*
X2178Y2953D02*
X2431Y2955D01*
D02*
X3172Y534D02*
X3445Y170D01*
D02*
X2482Y551D02*
X2927Y474D01*
D02*
X2927Y474D02*
X3132Y547D01*
D02*
X1782Y550D02*
X2183Y474D01*
D02*
X2183Y474D02*
X2432Y548D01*
D02*
X1182Y547D02*
X1415Y474D01*
D02*
X1415Y474D02*
X1731Y549D01*
D02*
X482Y551D02*
X911Y486D01*
D02*
X911Y486D02*
X1132Y548D01*
D02*
X2840Y2067D02*
X2783Y2106D01*
D02*
X2783Y2106D02*
X2783Y2418D01*
D02*
X2783Y2418D02*
X2851Y2635D01*
D02*
X2851Y3235D02*
X2783Y3018D01*
D02*
X2783Y3018D02*
X2783Y2706D01*
D02*
X2783Y2706D02*
X2840Y2667D01*
D02*
X3439Y2461D02*
X2877Y2649D01*
D02*
X2840Y1368D02*
X2783Y1410D01*
D02*
X2783Y1410D02*
X2783Y1722D01*
D02*
X2783Y1722D02*
X2852Y2035D01*
D02*
X2838Y565D02*
X2783Y594D01*
D02*
X2783Y594D02*
X2783Y930D01*
D02*
X2783Y930D02*
X2853Y1335D01*
D02*
X2431Y1361D02*
X2087Y1434D01*
D02*
X2087Y1434D02*
X1782Y1361D01*
D02*
X3442Y368D02*
X3239Y546D01*
D02*
X3239Y546D02*
X3239Y906D01*
D02*
X3239Y906D02*
X3191Y930D01*
D02*
X3191Y930D02*
X3159Y1329D01*
D02*
X2140Y2068D02*
X2087Y2106D01*
D02*
X2087Y2106D02*
X2087Y2418D01*
D02*
X2087Y2418D02*
X2151Y2635D01*
D02*
X2151Y3235D02*
X2087Y3018D01*
D02*
X2087Y3018D02*
X2087Y2706D01*
D02*
X2087Y2706D02*
X2140Y2668D01*
D02*
X2157Y1334D02*
X2157Y1255D01*
D02*
X2157Y1255D02*
X2557Y1255D01*
D02*
X2557Y1255D02*
X2531Y1410D01*
D02*
X2531Y1410D02*
X2495Y1446D01*
D02*
X2495Y1446D02*
X2159Y2010D01*
D02*
X2159Y2010D02*
X2158Y2034D01*
D02*
X2138Y566D02*
X2087Y594D01*
D02*
X2087Y594D02*
X2087Y930D01*
D02*
X2087Y930D02*
X2157Y1255D01*
D02*
X1182Y2063D02*
X1415Y2130D01*
D02*
X1415Y2130D02*
X1731Y2061D01*
D02*
X482Y2061D02*
X815Y2130D01*
D02*
X815Y2130D02*
X1131Y2061D01*
D02*
X3440Y564D02*
X3383Y594D01*
D02*
X3383Y594D02*
X3191Y2010D01*
D02*
X3191Y2010D02*
X3173Y2035D01*
D02*
X1182Y2663D02*
X1415Y2730D01*
D02*
X1415Y2730D02*
X1731Y2661D01*
D02*
X482Y2661D02*
X815Y2730D01*
D02*
X815Y2730D02*
X1131Y2661D01*
D02*
X1441Y1369D02*
X1391Y1410D01*
D02*
X1391Y1410D02*
X1391Y1722D01*
D02*
X1391Y1722D02*
X1453Y2035D01*
D02*
X1439Y566D02*
X1391Y594D01*
D02*
X1391Y594D02*
X1391Y930D01*
D02*
X1391Y930D02*
X1454Y1335D01*
D02*
X1182Y3263D02*
X1415Y3330D01*
D02*
X1415Y3330D02*
X1731Y3261D01*
D02*
X482Y3261D02*
X815Y3330D01*
D02*
X815Y3330D02*
X1131Y3261D01*
D02*
X3355Y1652D02*
X3355Y2157D01*
D02*
X3355Y2157D02*
X3527Y2514D01*
D02*
X3454Y974D02*
X3355Y1652D01*
D02*
X3527Y2514D02*
X3407Y2598D01*
D02*
X3407Y2598D02*
X3166Y3231D01*
D02*
X841Y1369D02*
X791Y1410D01*
D02*
X791Y1410D02*
X791Y1722D01*
D02*
X791Y1722D02*
X853Y2035D01*
D02*
X839Y566D02*
X791Y594D01*
D02*
X791Y594D02*
X791Y930D01*
D02*
X791Y930D02*
X854Y1335D01*
D02*
X3445Y3070D02*
X3239Y3330D01*
D02*
X3239Y3330D02*
X2087Y3330D01*
D02*
X2087Y3330D02*
X1823Y3186D01*
D02*
X1823Y3186D02*
X1079Y3186D01*
D02*
X1079Y3186D02*
X877Y3249D01*
D02*
X141Y1369D02*
X95Y1410D01*
D02*
X95Y1410D02*
X95Y1722D01*
D02*
X95Y1722D02*
X153Y2035D01*
D02*
X162Y576D02*
X239Y906D01*
D02*
X239Y906D02*
X161Y1335D01*
D02*
X2957Y2958D02*
X3131Y2956D01*
D02*
X2878Y2954D02*
X2957Y2958D01*
G04 End of Copper0*
M02*