; NON-PLATED HOLES START AT T1
; THROUGH (PLATED) HOLES START AT T100
M48
INCH
T100C0.042000
T101C0.038000
T102C0.052000
%
T100
X001567Y032552
X028567Y026552
X001567Y035532
X014567Y020552
X021567Y035532
X008567Y026552
X014567Y005552
X021567Y032552
X014567Y023532
X014567Y016532
X014567Y013552
X008567Y032552
X008567Y035532
X021567Y026552
X001567Y026552
X014567Y029532
X028567Y035532
X028567Y032552
X014567Y008532
X001567Y005552
X008567Y029532
X001567Y020552
X014567Y032552
X021567Y020552
X014567Y035532
X021567Y005552
X001567Y016532
X028567Y029532
X008567Y008532
X021567Y023532
X001567Y013552
X021567Y013552
X001567Y023532
X028567Y008532
X021567Y016532
X008567Y020552
X001567Y029532
X008567Y005552
X014567Y026552
X021567Y029532
X028567Y005552
X028567Y020552
X028567Y023532
X001567Y008532
X008567Y016532
X008567Y013552
X028567Y013552
X028567Y016532
X021567Y008532
X008567Y023532
T101
X034567Y009552
X034567Y024552
X034567Y026552
X034567Y007552
X034567Y030552
X034567Y001552
X034567Y028552
X034567Y003552
X034567Y005552
X034567Y032552
T102
X011567Y005552
X011567Y020552
X024567Y023552
X024567Y032552
X011567Y008552
X004567Y032552
X004567Y023552
X031567Y016552
X017567Y023552
X017567Y032552
X011567Y013552
X031567Y013552
X004567Y026552
X004567Y035552
X024567Y035552
X024567Y026552
X017567Y029552
X031567Y008552
X004567Y029552
X031567Y020552
X031567Y005552
X011567Y016552
X017567Y035552
X024567Y029552
X017567Y026552
X017567Y013552
X011567Y032552
X024567Y008552
X024567Y005552
X024567Y020552
X011567Y023552
X004567Y020552
X004567Y005552
X004567Y008552
X031567Y029552
X017567Y008552
X024567Y013552
X017567Y020552
X017567Y005552
X031567Y035552
X004567Y013552
X031567Y026552
X011567Y026552
X011567Y035552
X017567Y016552
X031567Y023552
X004567Y016552
X031567Y032552
X011567Y029552
X024567Y016552
T00
M30
